<svg xmlns="http://www.w3.org/2000/svg" width="54" height="23" viewBox="0 0 54 23" fill="none"><path d="M52.9961 11.7191C53.546 11.7705 53.9501 12.258 53.8987 12.8078L53.0609 21.7688C53.0095 22.3186 52.522 22.7227 51.9721 22.6713C51.4223 22.6199 51.0182 22.1325 51.0696 21.5826L51.8142 13.6173L43.849 12.8726C43.2991 12.8212 42.895 12.3338 42.9464 11.7839C42.9978 11.234 43.4853 10.8299 44.0352 10.8813L52.9961 11.7191ZM2.71676 0.330448C6.2139 10.8792 14.4568 17.1781 23.9036 19.1551C33.3706 21.1363 44.0335 18.7686 52.2648 11.9449L53.5412 13.4846C44.8358 20.7015 33.5507 23.2173 23.4939 21.1127C13.4171 19.0039 4.56057 12.2477 0.818365 0.959809L2.71676 0.330448Z" fill="white"/></svg>