<svg xmlns="http://www.w3.org/2000/svg" viewBox="0 0 100 100" fill-rule="evenodd"><g fill="#ffffff" stroke-width="0.5" stroke="#ffffff"><path d="m31.945 86.583-20.919.005h-.001a5.39 5.39 0 0 1-4.73-2.741 5.391 5.391 0 0 1 .027-5.467l7.042-12.015.807 3.089a1.5 1.5 0 1 0 2.902-.76l-1.812-6.931a1.5 1.5 0 0 0-1.831-1.071L6.5 62.503a1.5 1.5 0 0 0 .759 2.902l3.766-.984-7.292 12.441c-1.551 2.646-1.567 5.814-.042 8.476s4.266 4.25 7.333 4.25h.002l20.918-.005a1.5 1.5 0 0 0 .001-3zM78.65 62.995c.817 0 1.484-.655 1.5-1.473l.159-8.699a1.5 1.5 0 0 0-.892-1.398l-13.743-6.1-5.297-8.553a1.498 1.498 0 0 0-1.275-.71H39.797c-.517 0-.997.266-1.271.704l-5.637 9.003h-7.911a1.5 1.5 0 0 0-1.5 1.5v14.226a1.5 1.5 0 0 0 1.5 1.5h5.399c.539 2.975 3.143 5.239 6.27 5.239 3.128 0 5.731-2.264 6.271-5.239h14.581c.539 2.975 3.143 5.239 6.271 5.239 3.127 0 5.731-2.264 6.27-5.239h8.61zM26.477 48.769h7.049c.038 0 .074-.008.111-.011.027.001.054.011.081.011.5 0 .988-.25 1.273-.704l5.637-9.003h17.64l5.101 8.236.003.004c.052.084.113.163.181.236.028.03.062.053.092.081.042.038.082.079.129.112a1.466 1.466 0 0 0 .261.149l13.257 5.884-.114 6.231h-7.31c-.798-2.612-3.23-4.518-6.099-4.518-2.87 0-5.302 1.906-6.1 4.518H42.746c-.798-2.612-3.23-4.518-6.1-4.518-2.87 0-5.301 1.906-6.099 4.518h-4.069V48.769zm10.169 16.465a3.382 3.382 0 0 1-3.378-3.379c0-1.862 1.515-3.378 3.378-3.378s3.378 1.516 3.378 3.378a3.382 3.382 0 0 1-3.378 3.379zm27.123 0a3.383 3.383 0 0 1-3.379-3.379 3.383 3.383 0 0 1 3.379-3.378 3.383 3.383 0 0 1 3.378 3.378 3.383 3.383 0 0 1-3.378 3.379zm-29.94-36.888a1.5 1.5 0 0 0 2.071-.458l11.25-17.635a5.385 5.385 0 0 1 4.855-2.514 5.393 5.393 0 0 1 4.595 2.964l7.8 15.255-3.578-1.042a1.5 1.5 0 0 0-.838 2.88l6.878 2.003a1.501 1.501 0 0 0 1.859-1.02l2.003-6.877a1.5 1.5 0 0 0-2.881-.838l-.935 3.21-7.636-14.937c-1.397-2.731-4.061-4.449-7.124-4.595-3.057-.149-5.877 1.311-7.527 3.897l-11.25 17.635a1.5 1.5 0 0 0 .458 2.072zm63.229 48.443-9.247-15.418a1.5 1.5 0 1 0-2.573 1.543l9.242 15.41a5.396 5.396 0 0 1 .049 5.467 5.395 5.395 0 0 1-4.716 2.761H73.851l2.572-2.439a1.499 1.499 0 1 0-2.064-2.176l-5.197 4.93a1.499 1.499 0 0 0-.056 2.12l4.93 5.197a1.495 1.495 0 0 0 2.12.056c.602-.569.626-1.52.056-2.12l-2.435-2.567H89.82c3.067-.012 5.804-1.611 7.318-4.279s1.486-5.837-.08-8.485z"/></g></svg>